<svg width="17" height="17" viewBox="0 0 17 17" fill="none" xmlns="http://www.w3.org/2000/svg">
<path d="M7.27344 14.875C7.39778 15.0903 7.57662 15.2692 7.79197 15.3935C8.00732 15.5178 8.25161 15.5833 8.50027 15.5833C8.74894 15.5833 8.99322 15.5178 9.20857 15.3935C9.42393 15.2692 9.60276 15.0903 9.7271 14.875" stroke="#575B61" stroke-width="1.5" stroke-linecap="round" stroke-linejoin="round"/>
<path d="M2.31104 10.8562C2.21851 10.9577 2.15744 11.0838 2.13527 11.2193C2.1131 11.3548 2.13079 11.4938 2.18617 11.6194C2.24155 11.745 2.33225 11.8518 2.44722 11.9269C2.5622 12.0019 2.6965 12.0419 2.83379 12.042H14.1671C14.3044 12.042 14.4387 12.0022 14.5538 11.9273C14.6688 11.8524 14.7596 11.7457 14.8152 11.6202C14.8707 11.4946 14.8886 11.3557 14.8666 11.2202C14.8446 11.0847 14.7837 10.9585 14.6913 10.857C13.7492 9.88583 12.7505 8.85378 12.7505 5.66699C12.7505 4.53982 12.3027 3.45882 11.5057 2.66179C10.7086 1.86476 9.62763 1.41699 8.50046 1.41699C7.37329 1.41699 6.29228 1.86476 5.49526 2.66179C4.69823 3.45882 4.25046 4.53982 4.25046 5.66699C4.25046 8.85378 3.251 9.88583 2.31104 10.8562Z" stroke="#575B61" stroke-width="1.5" stroke-linecap="round" stroke-linejoin="round"/>
</svg>
