<svg width="8" height="27" viewBox="0 0 8 27" fill="none" xmlns="http://www.w3.org/2000/svg">
<path d="M7.17179 -0.000178337L6.50701 17.9998H0.677468L0.0126953 -0.000178337H7.17179ZM3.59224 26.5907C2.6036 26.5907 1.75559 26.2456 1.04821 25.5552C0.349343 24.8564 0.00417268 24.0083 0.0126953 23.0112C0.00417268 22.0396 0.349343 21.2086 1.04821 20.5183C1.75559 19.8279 2.6036 19.4828 3.59224 19.4828C4.52974 19.4828 5.35645 19.8279 6.07235 20.5183C6.79679 21.2086 7.16326 22.0396 7.17179 23.0112C7.16326 23.676 6.98855 24.2811 6.64764 24.8265C6.31525 25.3635 5.88059 25.7939 5.34366 26.1177C4.80673 26.4331 4.22292 26.5907 3.59224 26.5907Z" fill="#EF4444"/>
</svg>
