<svg width="20" height="20" viewBox="0 0 20 20" fill="none" xmlns="http://www.w3.org/2000/svg">
<path d="M12.5665 2.29331H7.43318C7.00149 2.27236 6.57896 2.42248 6.25726 2.7111C5.93557 2.99972 5.74066 3.40356 5.71484 3.83498V8.89915C5.73085 9.73214 5.97403 10.545 6.41813 11.2499C6.86223 11.9548 7.4904 12.5251 8.23484 12.8991C8.77847 13.1875 9.38447 13.3383 9.99984 13.3383C10.6152 13.3383 11.2212 13.1875 11.7648 12.8991C12.5093 12.5251 13.1375 11.9548 13.5816 11.2499C14.0257 10.545 14.2688 9.73214 14.2848 8.89915V3.83498C14.259 3.40356 14.0641 2.99972 13.7424 2.7111C13.4207 2.42248 12.9982 2.27236 12.5665 2.29331Z" stroke="#5E4B8B" stroke-width="2" stroke-linecap="round"/>
<path d="M14.285 3.83496H15.9966C16.4271 3.81603 16.8477 3.96707 17.1677 4.25548C17.4878 4.54389 17.6817 4.94657 17.7075 5.37663C17.7051 6.34313 17.4555 7.29295 16.9825 8.13579C16.4874 9.00728 15.7961 9.7514 14.9633 10.3091L14.285 10.7716L13.6225 11.1725M5.71498 3.83496H4.00331C3.57289 3.81603 3.15228 3.96707 2.83222 4.25548C2.51216 4.54389 2.31831 4.94657 2.29248 5.37663C2.29498 6.34329 2.54415 7.29329 3.01748 8.13579C3.51253 9.00728 4.20387 9.7514 5.03665 10.3091L5.71498 10.7716L6.37748 11.1725M8.28915 15.3958V12.9216M11.7108 15.3958V12.9216M7.34165 15.3958H12.6583C12.872 15.3956 13.0836 15.4375 13.2811 15.5192C13.4785 15.6008 13.6579 15.7207 13.809 15.8717C13.9601 16.0228 14.0799 16.2022 14.1616 16.3997C14.2433 16.5972 14.2852 16.8088 14.285 17.0225V17.3C14.285 17.4083 14.242 17.5121 14.1654 17.5887C14.0888 17.6653 13.9849 17.7083 13.8766 17.7083H6.12331C6.01502 17.7083 5.91116 17.6653 5.83458 17.5887C5.758 17.5121 5.71498 17.4083 5.71498 17.3V17.0225C5.71476 16.8089 5.75666 16.5973 5.83828 16.3999C5.91989 16.2025 6.03963 16.0231 6.19064 15.872C6.34164 15.721 6.52095 15.6011 6.71831 15.5194C6.91567 15.4377 7.12721 15.3957 7.34081 15.3958H7.34165Z" stroke="#5E4B8B" stroke-width="2" stroke-linecap="round"/>
</svg>
