<svg width="20" height="20" viewBox="0 0 20 20" fill="none" xmlns="http://www.w3.org/2000/svg">
<path d="M16.5536 10.4999L10.0003 16.9903L3.44701 10.4999C3.01476 10.0793 2.67429 9.57375 2.44702 9.01508C2.21976 8.45641 2.11063 7.85673 2.12652 7.25381C2.1424 6.6509 2.28294 6.0578 2.5393 5.51187C2.79566 4.96594 3.16228 4.479 3.61607 4.08172C4.06987 3.68444 4.60101 3.38542 5.17604 3.20349C5.75107 3.02156 6.35755 2.96067 6.95727 3.02465C7.55699 3.08862 8.13698 3.27608 8.66069 3.57522C9.18441 3.87435 9.64052 4.27868 10.0003 4.76275C10.3616 4.2822 10.8183 3.8814 11.3416 3.58544C11.865 3.28948 12.4438 3.10473 13.0418 3.04275C13.6399 2.98078 14.2443 3.04291 14.8172 3.22526C15.3901 3.40761 15.9192 3.70625 16.3714 4.1025C16.8236 4.49874 17.1892 4.98406 17.4452 5.52808C17.7012 6.0721 17.8422 6.6631 17.8593 7.2641C17.8764 7.8651 17.7692 8.46316 17.5445 9.02086C17.3199 9.57855 16.9825 10.0839 16.5536 10.5052" stroke="#5E4B8B" stroke-width="2" stroke-linecap="round" stroke-linejoin="round"/>
<path d="M16.5536 10.4999L10.0003 16.9903L3.44701 10.4999C3.01476 10.0793 2.67429 9.57375 2.44702 9.01508C2.21976 8.45641 2.11063 7.85673 2.12652 7.25381C2.1424 6.6509 2.28294 6.0578 2.5393 5.51187C2.79566 4.96594 3.16228 4.479 3.61607 4.08172C4.06987 3.68444 4.60101 3.38542 5.17604 3.20349C5.75107 3.02156 6.35755 2.96067 6.95727 3.02465C7.55699 3.08862 8.13698 3.27608 8.66069 3.57522C9.18441 3.87435 9.64052 4.27868 10.0003 4.76275C10.3616 4.2822 10.8183 3.8814 11.3416 3.58544C11.865 3.28948 12.4438 3.10473 13.0418 3.04275C13.6399 2.98078 14.2443 3.04291 14.8172 3.22526C15.3901 3.40761 15.9192 3.70625 16.3714 4.1025C16.8236 4.49874 17.1892 4.98406 17.4452 5.52808C17.7012 6.0721 17.8422 6.6631 17.8593 7.2641C17.8764 7.8651 17.7692 8.46316 17.5445 9.02086C17.3199 9.57855 16.9825 10.0839 16.5536 10.5052" stroke="#5E4B8B" stroke-width="2" stroke-linecap="round" stroke-linejoin="round"/>
<path d="M10.0003 4.75757L7.12302 7.6349C6.95921 7.79875 6.86719 8.02096 6.86719 8.25265C6.86719 8.48434 6.95921 8.70655 7.12302 8.87041L7.59747 9.34486C8.20038 9.94777 9.179 9.94777 9.7819 9.34486L10.6557 8.47109C11.1771 7.94969 11.8843 7.65676 12.6217 7.65676C13.359 7.65676 14.0662 7.94969 14.5876 8.47109L16.5536 10.4371" stroke="#5E4B8B" stroke-width="2" stroke-linecap="round" stroke-linejoin="round"/>
<path d="M10.0003 4.75757L7.12302 7.6349C6.95921 7.79875 6.86719 8.02096 6.86719 8.25265C6.86719 8.48434 6.95921 8.70655 7.12302 8.87041L7.59747 9.34486C8.20038 9.94777 9.179 9.94777 9.7819 9.34486L10.6557 8.47109C11.1771 7.94969 11.8843 7.65676 12.6217 7.65676C13.359 7.65676 14.0662 7.94969 14.5876 8.47109L16.5536 10.4371" stroke="#5E4B8B" stroke-width="2" stroke-linecap="round" stroke-linejoin="round"/>
<path d="M10.437 13.0582L12.1846 14.8058" stroke="#5E4B8B" stroke-width="2" stroke-linecap="round" stroke-linejoin="round"/>
<path d="M10.437 13.0582L12.1846 14.8058" stroke="#5E4B8B" stroke-width="2" stroke-linecap="round" stroke-linejoin="round"/>
<path d="M12.6216 10.8741L14.3691 12.6217" stroke="#5E4B8B" stroke-width="2" stroke-linecap="round" stroke-linejoin="round"/>
<path d="M12.6216 10.8741L14.3691 12.6217" stroke="#5E4B8B" stroke-width="2" stroke-linecap="round" stroke-linejoin="round"/>
</svg>
