<svg width="18" height="16" viewBox="0 0 18 16" fill="none" xmlns="http://www.w3.org/2000/svg">
<path d="M15.1786 8.24993L8.62529 14.7403L2.07201 8.24993C1.63976 7.82931 1.29929 7.32375 1.07202 6.76508C0.84476 6.20641 0.735633 5.60673 0.751515 5.00381C0.767397 4.4009 0.907942 3.8078 1.1643 3.26187C1.42066 2.71594 1.78728 2.229 2.24107 1.83172C2.69487 1.43444 3.22601 1.13542 3.80104 0.953491C4.37607 0.771565 4.98255 0.710673 5.58227 0.774648C6.18199 0.838623 6.76198 1.02608 7.28569 1.32522C7.80941 1.62435 8.26552 2.02868 8.62529 2.51275C8.98663 2.0322 9.44326 1.6314 9.96662 1.33544C10.49 1.03948 11.0688 0.854727 11.6668 0.792751C12.2649 0.730775 12.8693 0.792907 13.4422 0.975257C14.0151 1.15761 14.5442 1.45625 14.9964 1.8525C15.4486 2.24874 15.8142 2.73406 16.0702 3.27808C16.3262 3.8221 16.4672 4.4131 16.4843 5.0141C16.5014 5.6151 16.3942 6.21316 16.1695 6.77086C15.9449 7.32855 15.6075 7.83386 15.1786 8.25517" stroke="#575B61" stroke-width="1.5" stroke-linecap="round" stroke-linejoin="round"/>
<path d="M15.1786 8.24993L8.62529 14.7403L2.07201 8.24993C1.63976 7.82931 1.29929 7.32375 1.07202 6.76508C0.84476 6.20641 0.735633 5.60673 0.751515 5.00381C0.767397 4.4009 0.907942 3.8078 1.1643 3.26187C1.42066 2.71594 1.78728 2.229 2.24107 1.83172C2.69487 1.43444 3.22601 1.13542 3.80104 0.953491C4.37607 0.771565 4.98255 0.710673 5.58227 0.774648C6.18199 0.838623 6.76198 1.02608 7.28569 1.32522C7.80941 1.62435 8.26552 2.02868 8.62529 2.51275C8.98663 2.0322 9.44326 1.6314 9.96662 1.33544C10.49 1.03948 11.0688 0.854727 11.6668 0.792751C12.2649 0.730775 12.8693 0.792907 13.4422 0.975257C14.0151 1.15761 14.5442 1.45625 14.9964 1.8525C15.4486 2.24874 15.8142 2.73406 16.0702 3.27808C16.3262 3.8221 16.4672 4.4131 16.4843 5.0141C16.5014 5.6151 16.3942 6.21316 16.1695 6.77086C15.9449 7.32855 15.6075 7.83386 15.1786 8.25517" stroke="#575B61" stroke-width="1.5" stroke-linecap="round" stroke-linejoin="round"/>
<path d="M8.62534 2.50757L5.74802 5.3849C5.58421 5.54875 5.49219 5.77096 5.49219 6.00265C5.49219 6.23434 5.58421 6.45655 5.74802 6.62041L6.22247 7.09486C6.82538 7.69777 7.804 7.69777 8.4069 7.09486L9.28067 6.22109C9.80208 5.69969 10.5093 5.40676 11.2467 5.40676C11.984 5.40676 12.6912 5.69969 13.2126 6.22109L15.1786 8.18708" stroke="#575B61" stroke-width="1.5" stroke-linecap="round" stroke-linejoin="round"/>
<path d="M8.62534 2.50757L5.74802 5.3849C5.58421 5.54875 5.49219 5.77096 5.49219 6.00265C5.49219 6.23434 5.58421 6.45655 5.74802 6.62041L6.22247 7.09486C6.82538 7.69777 7.804 7.69777 8.4069 7.09486L9.28067 6.22109C9.80208 5.69969 10.5093 5.40676 11.2467 5.40676C11.984 5.40676 12.6912 5.69969 13.2126 6.22109L15.1786 8.18708" stroke="#575B61" stroke-width="1.5" stroke-linecap="round" stroke-linejoin="round"/>
<path d="M9.06201 10.8082L10.8096 12.5558" stroke="#575B61" stroke-width="1.5" stroke-linecap="round" stroke-linejoin="round"/>
<path d="M9.06201 10.8082L10.8096 12.5558" stroke="#575B61" stroke-width="1.5" stroke-linecap="round" stroke-linejoin="round"/>
<path d="M11.2466 8.62415L12.9941 10.3717" stroke="#575B61" stroke-width="1.5" stroke-linecap="round" stroke-linejoin="round"/>
<path d="M11.2466 8.62415L12.9941 10.3717" stroke="#575B61" stroke-width="1.5" stroke-linecap="round" stroke-linejoin="round"/>
</svg>
