<svg width="16" height="14" viewBox="0 0 16 14" fill="none" xmlns="http://www.w3.org/2000/svg">
<path d="M15.7031 3.125C15.7031 3.84115 15.3841 5.23438 14.7461 7.30469C14.1211 9.36198 13.5872 11.5234 13.1445 13.7891H11.7969C11.3411 11.5234 10.8008 9.36198 10.1758 7.30469C9.55078 5.23438 9.23828 3.84115 9.23828 3.125C9.23828 2.29167 9.51823 1.5625 10.0781 0.9375C10.638 0.3125 11.4388 0 12.4805 0C13.4961 0 14.2839 0.3125 14.8438 0.9375C15.4167 1.5625 15.7031 2.29167 15.7031 3.125ZM6.46484 3.125C6.46484 3.84115 6.14583 5.23438 5.50781 7.30469C4.88281 9.36198 4.34896 11.5234 3.90625 13.7891H2.55859C2.10286 11.5234 1.5625 9.36198 0.9375 7.30469C0.3125 5.23438 0 3.84115 0 3.125C0 2.29167 0.279948 1.5625 0.839844 0.9375C1.39974 0.3125 2.20052 0 3.24219 0C4.25781 0 5.04557 0.3125 5.60547 0.9375C6.17839 1.5625 6.46484 2.29167 6.46484 3.125Z" fill="#4A3870" fill-opacity="0.15"/>
</svg>
