<svg width="20" height="20" viewBox="0 0 20 20" fill="none" xmlns="http://www.w3.org/2000/svg">
<path d="M2.50033 17.5002C5.00033 17.5002 8.33366 16.6669 8.33366 10.8336V4.1669C8.33366 3.12523 7.70366 2.48606 6.66699 2.50023H3.33366C2.29199 2.50023 1.66699 3.12523 1.66699 4.14356V9.1669C1.66699 10.2086 2.29199 10.8336 3.33366 10.8336C4.16699 10.8336 4.16699 10.8336 4.16699 11.6669V12.5002C4.16699 13.3336 3.33366 14.1669 2.50033 14.1669C1.66699 14.1669 1.66699 14.1736 1.66699 15.0261V16.6669C1.66699 17.5002 1.66699 17.5002 2.50033 17.5002Z" stroke="#E8A060" stroke-width="1.5" stroke-linecap="round" stroke-linejoin="round"/>
<path d="M12.5003 17.5002C15.0003 17.5002 18.3337 16.6669 18.3337 10.8336V4.1669C18.3337 3.12523 17.7028 2.48606 16.667 2.50023H13.3337C12.292 2.50023 11.667 3.12523 11.667 4.14356V9.1669C11.667 10.2086 12.292 10.8336 13.3337 10.8336H13.9587C13.9587 12.7086 14.167 14.1669 11.667 14.1669V16.6669C11.667 17.5002 11.667 17.5002 12.5003 17.5002Z" stroke="#E8A060" stroke-width="1.5" stroke-linecap="round" stroke-linejoin="round"/>
</svg>
