<svg width="18" height="18" viewBox="0 0 18 18" fill="none" xmlns="http://www.w3.org/2000/svg">
<path d="M2.25 15.7502C4.5 15.7502 7.5 15.0002 7.5 9.75021V3.75021C7.5 2.81271 6.933 2.23746 6 2.25021H3C2.0625 2.25021 1.5 2.81271 1.5 3.72921V8.25021C1.5 9.18771 2.0625 9.75021 3 9.75021C3.75 9.75021 3.75 9.75021 3.75 10.5002V11.2502C3.75 12.0002 3 12.7502 2.25 12.7502C1.5 12.7502 1.5 12.7562 1.5 13.5235V15.0002C1.5 15.7502 1.5 15.7502 2.25 15.7502Z" stroke="white" stroke-width="1.5" stroke-linecap="round" stroke-linejoin="round"/>
<path d="M11.25 15.7502C13.5 15.7502 16.5 15.0002 16.5 9.75021V3.75021C16.5 2.81271 15.9323 2.23746 15 2.25021H12C11.0625 2.25021 10.5 2.81271 10.5 3.72921V8.25021C10.5 9.18771 11.0625 9.75021 12 9.75021H12.5625C12.5625 11.4377 12.75 12.7502 10.5 12.7502V15.0002C10.5 15.7502 10.5 15.7502 11.25 15.7502Z" stroke="white" stroke-width="1.5" stroke-linecap="round" stroke-linejoin="round"/>
</svg>
