<svg width="108" height="108" viewBox="0 0 108 108" fill="none" xmlns="http://www.w3.org/2000/svg">
<path d="M43.6774 71.5012C43.231 69.7709 42.3291 68.1918 41.0655 66.9282C39.8019 65.6646 38.2227 64.7626 36.4924 64.3162L5.81738 56.4062C5.29403 56.2577 4.83342 55.9425 4.50544 55.5085C4.17745 55.0744 4 54.5453 4 54.0012C4 53.4572 4.17745 52.9281 4.50544 52.494C4.83342 52.06 5.29403 51.7448 5.81738 51.5962L36.4924 43.6812C38.2221 43.2353 39.8008 42.3341 41.0644 41.0714C42.3279 39.8088 43.2302 38.2307 43.6774 36.5012L51.5874 5.82625C51.7344 5.30084 52.0493 4.83795 52.484 4.50822C52.9187 4.17848 53.4493 4 53.9949 4C54.5405 4 55.0711 4.17848 55.5058 4.50822C55.9405 4.83795 56.2553 5.30084 56.4024 5.82625L64.3074 36.5012C64.7538 38.2316 65.6557 39.8107 66.9193 41.0743C68.1829 42.3379 69.762 43.2399 71.4924 43.6862L102.167 51.5912C102.695 51.7367 103.16 52.0513 103.492 52.4866C103.823 52.922 104.003 53.4541 104.003 54.0012C104.003 54.5484 103.823 55.0805 103.492 55.5159C103.16 55.9512 102.695 56.2657 102.167 56.4112L71.4924 64.3162C69.762 64.7626 68.1829 65.6646 66.9193 66.9282C65.6557 68.1918 64.7538 69.7709 64.3074 71.5012L56.3974 102.176C56.2503 102.702 55.9355 103.165 55.5008 103.494C55.0661 103.824 54.5355 104.002 53.9899 104.002C53.4443 104.002 52.9137 103.824 52.479 103.494C52.0443 103.165 51.7294 102.702 51.5824 102.176L43.6774 71.5012Z" stroke="#2E2530" stroke-width="8" stroke-linecap="round" stroke-linejoin="round"/>
</svg>
